<svg xmlns="http://www.w3.org/2000/svg" viewBox="0 0 100 100" width="100" height="100">
	<style>
		tspan { white-space:pre }
		.shp0 { fill: #000000 } 
	</style>
	<g id="Layer">
		<g id="Layer">
			<path id="Layer" class="shp0" d="M100,50l-2.47,3.12c-0.2,0.25 -4.98,6.25 -13.11,12.22c-10.92,8.02 -22.82,12.26 -34.43,12.26c-11.61,0 -23.51,-4.24 -34.43,-12.26c-8.15,-5.99 -12.91,-11.97 -13.11,-12.22l-2.47,-3.12l2.47,-3.12c0.2,-0.25 4.95,-6.23 13.11,-12.22c10.92,-8.02 22.82,-12.26 34.43,-12.26c11.61,0 23.51,4.24 34.43,12.26c8.13,5.97 12.91,11.96 13.11,12.22zM95.72,50l-0.82,-1.04c-0.19,-0.24 -4.69,-5.89 -12.46,-11.59c-10.34,-7.59 -21.55,-11.61 -32.44,-11.61c-10.89,0 -22.11,4.01 -32.44,11.61c-7.79,5.72 -12.27,11.36 -12.46,11.59l-0.82,1.04l0.82,1.04c0.19,0.24 4.67,5.87 12.46,11.59c10.34,7.59 21.55,11.61 32.44,11.61c10.89,0 22.11,-4.01 32.44,-11.61c7.77,-5.71 12.27,-11.36 12.46,-11.59z" />
			<path id="Layer" class="shp0" d="M68.62,50c0,10.27 -8.35,18.62 -18.62,18.62c-10.27,0 -18.62,-8.35 -18.62,-18.62c0,-10.27 8.35,-18.62 18.62,-18.62c10.27,0 18.62,8.35 18.62,18.62zM65.26,50c0,-8.42 -6.85,-15.26 -15.26,-15.26c-8.42,0 -15.26,6.85 -15.26,15.26c0,8.42 6.85,15.26 15.26,15.26c8.42,0 15.26,-6.85 15.26,-15.26z" />
			<path id="Layer" class="shp0" d="M50,38.44v3.35c4.53,0 8.21,3.68 8.21,8.21h3.35c0,-6.38 -5.19,-11.56 -11.56,-11.56z" />
		</g>
	</g>
	<g id="Layer">
	</g>
	<g id="Layer">
	</g>
	<g id="Layer">
	</g>
	<g id="Layer">
	</g>
	<g id="Layer">
	</g>
	<g id="Layer">
	</g>
	<g id="Layer">
	</g>
	<g id="Layer">
	</g>
	<g id="Layer">
	</g>
	<g id="Layer">
	</g>
	<g id="Layer">
	</g>
	<g id="Layer">
	</g>
	<g id="Layer">
	</g>
	<g id="Layer">
	</g>
	<g id="Layer">
	</g>
</svg>